<mxfile host="65bd71144e">
    <diagram name="Page-1" id="uchZI-8OXSG9672uxPQk">
        <mxGraphModel dx="1105" dy="894" grid="0" gridSize="10" guides="1" tooltips="1" connect="1" arrows="1" fold="1" page="0" pageScale="1" pageWidth="850" pageHeight="1100" math="0" shadow="0">
            <root>
                <mxCell id="0"/>
                <mxCell id="1" parent="0"/>
                <mxCell id="XypIK83r2j00tN3dOgXR-7" style="edgeStyle=orthogonalEdgeStyle;rounded=0;orthogonalLoop=1;jettySize=auto;html=1;entryX=0;entryY=0.5;entryDx=0;entryDy=0;" parent="1" source="XypIK83r2j00tN3dOgXR-1" target="XypIK83r2j00tN3dOgXR-3" edge="1">
                    <mxGeometry relative="1" as="geometry"/>
                </mxCell>
                <mxCell id="XypIK83r2j00tN3dOgXR-1" value="" style="sketch=0;outlineConnect=0;fontColor=#232F3E;gradientColor=none;fillColor=#232F3D;strokeColor=none;dashed=0;verticalLabelPosition=bottom;verticalAlign=top;align=center;html=1;fontSize=12;fontStyle=0;aspect=fixed;pointerEvents=1;shape=mxgraph.aws4.user;" parent="1" vertex="1">
                    <mxGeometry x="160" y="150" width="78" height="78" as="geometry"/>
                </mxCell>
                <mxCell id="XypIK83r2j00tN3dOgXR-2" value="User" style="text;html=1;align=center;verticalAlign=middle;whiteSpace=wrap;rounded=0;" parent="1" vertex="1">
                    <mxGeometry x="169" y="230" width="60" height="30" as="geometry"/>
                </mxCell>
                <mxCell id="XypIK83r2j00tN3dOgXR-8" style="edgeStyle=orthogonalEdgeStyle;rounded=0;orthogonalLoop=1;jettySize=auto;html=1;exitX=1;exitY=0.5;exitDx=0;exitDy=0;entryX=0;entryY=0.5;entryDx=0;entryDy=0;" parent="1" source="XypIK83r2j00tN3dOgXR-3" target="XypIK83r2j00tN3dOgXR-4" edge="1">
                    <mxGeometry relative="1" as="geometry"/>
                </mxCell>
                <mxCell id="XypIK83r2j00tN3dOgXR-3" value="" style="shape=image;verticalLabelPosition=bottom;labelBackgroundColor=default;verticalAlign=top;aspect=fixed;imageAspect=0;image=data:image/jpeg,/9j/4AAQSkZJRgABAQEAAAAAAAD/4QAuRXhpZgAATU0AKgAAAAgAAkAAAAMAAAABAHAAAEABAAEAAAABAAAAAAAAAAD/2wBDAAoHBwkHBgoJCAkLCwoMDxkQDw4ODx4WFxIZJCAmJSMgIyIoLTkwKCo2KyIjMkQyNjs9QEBAJjBGS0U+Sjk/QD3/2wBDAQsLCw8NDx0QEB09KSMpPT09PT09PT09PT09PT09PT09PT09PT09PT09PT09PT09PT09PT09PT09PT09PT09PT3/wAARCAEVAdoDASIAAhEBAxEB/8QAHwAAAQUBAQEBAQEAAAAAAAAAAAECAwQFBgcICQoL/8QAtRAAAgEDAwIEAwUFBAQAAAF9AQIDAAQRBRIhMUEGE1FhByJxFDKBkaEII0KxwRVS0fAkM2JyggkKFhcYGRolJicoKSo0NTY3ODk6Q0RFRkdISUpTVFVWV1hZWmNkZWZnaGlqc3R1dnd4eXqDhIWGh4iJipKTlJWWl5iZmqKjpKWmp6ipqrKztLW2t7i5usLDxMXGx8jJytLT1NXW19jZ2uHi4+Tl5ufo6erx8vP09fb3+Pn6/8QAHwEAAwEBAQEBAQEBAQAAAAAAAAECAwQFBgcICQoL/8QAtREAAgECBAQDBAcFBAQAAQJ3AAECAxEEBSExBhJBUQdhcRMiMoEIFEKRobHBCSMzUvAVYnLRChYkNOEl8RcYGRomJygpKjU2Nzg5OkNERUZHSElKU1RVVldYWVpjZGVmZ2hpanN0dXZ3eHl6goOEhYaHiImKkpOUlZaXmJmaoqOkpaanqKmqsrO0tba3uLm6wsPExcbHyMnK0tPU1dbX2Nna4uPk5ebn6Onq8vP09fb3+Pn6/9oADAMBAAIRAxEAPwD2WiiigAooooAKKKKACiiigAooooAKKKKACiiigAooooAKKKKACiiigAooooAKKKKACiiigAooooAKKKKACiiigAooooAKKKKACiiigAooooAKKKKACiiigAooooAKKKKACiiigAooooAKKKKACiiigAooooAKKKKACiiigAooooAKKKKACiiigAooooAKKKKACiiigAooooAKKKKACiiigAooooAKKKKACiiigAooooAKKKKACiiigAooooAKKKKACiiigAooooAKKKKACiiigAooooAKKKKACiiigAooooAKKKKACiiigAooooAKKKKACiiigAooooAKKKKACiiigAooooAKKKKACiiigAooooAKKKKACiiigAooooAKKKKACiiigAooooAKKKKACiiigAooooAKKKKACiiigAooooAKKKKACiiigAooooAKKKKACiiigAooooAKKKKACiiigAooooAKKKKACiiigAooooAKKKKACiiigAooooAKKKKACiiigAooooAKKKKACiiigAooqGa5ht9nnSpHvOF3sBk+1AJNvQmooBzRQAUUUUAFFFFACZ5rmNY8b2ekaqtm0TzbcedIrcR59u5xzj+tXfFGuroWltKMGeT5IVP971+g615FJI0sjSSMzyOSzMTkknv+NZVKnLotz0MFg/bJynse6xSpNGskbBkYZBB4Ip1cF8P/ABBn/iUXT8jLW5J6juv4dvx9K76rjJSV0clei6U3FhRRRVGQUUUUAFFFQNe2yXSWzXES3DjKxFwGYew60AT0UUUAFFFFABRRRQAUUUUAFFFFABRRRQAUUUUAFFFFABRRRQAUUUUAFFFFABRRRQAUUUUAFFFFABRRRQAUUUUAFFFFABRRRQAUUUUAFFFFABRRRQAGuZ8b2H2rSVuVGWtm3H/dPB/ofwrpSaiuIUuYJIpBlXUqR7GplHmVjXD1fZVYzXRnm+leJr/SyED+dAP+WUhzj6Ht/L2rtNK8S2Oq4RX8mc/8spDgn6eted3ls9leTW8n3onKk+vofxGDUFcUK0oaPU+pxGXUMUueOjfVHsmaK840vxZfafiOQ/aYB2c/MPof8c12el+IbHVQBDLtlxzE/DD/AB/CuqFWM9j5/E5fWw+sldd0atRTzx20Mk0zBI41LMx6ACpM5rz7x/4g8yT+ybZ/lUhrgg9T1C/1P4VcpKKuc9Ci601FHN+Itak1zVHuTlYh8kKH+FfX6nrWXRRXG227s+lhCMIqK2Q6KV4ZklidkkjYMrDsRXsHhrXE17Skm4WdPlmQfwt/h3rx2tbw3rj6DqiT/MYH+SZR3X1+o6/mKunPleuxy43D+2hdbr+rHslFRwzJPEkkbBkcBlYHIINV9R1Sz0m2M99cxwRju7dfoO59hXWfP2d7Fys/Vdc0/RYPO1C5SEH7qk5ZvoOprgNe+KMsu6DRIfKXp9olHzH6L2+pz9K4O5uZ7ydp7qaSaVvvPIdxqXLsdNPCylrLQ7XX/ibeXu6HSIzaQnjzWwZG+g6L+p+lQfDnTpNV8UvqNyzyC1XezsxYs7cDJPtk/hXGV7P8PtI/svwxC8i4mu/375HQH7o/75x+tTG7eptVUaUGorc6miiitDzwooooAKKKKACiiigAooooAKKKKACiiigAooooAKKKKACiiigAooooAKKKKACiiigAooooAKKKKACiiigAooooAKKKKACiiigAooooAKKKKACiiigDhPHNh5N9DeqPlmGx/wDeHT9P5Vy1eoeIdP8A7S0aeEDMgG5P94c15fXBXjaV+59ZlFf2tDle8fyCgEghgSGByCDjFFFYHq7m3aeMNStbV4WZZiVIR5PvKfU+o+v51yUySiRnmLM7EsWJzuJ/qa0etBAIIIyD2Nae0ls3c5PqdKLbgrN9jKoq5LaK2TEdp9DVV42jOGBH9apNMxnTlHoNooopkG3Z+NdS0XRDZ2qRuVb5JJOfKX0x359eme9cvfX93qdybi+uJJ5T/E56fT0HsMVdIBBB6Hg1nTRGKQj+E8g1tCTaszhq0IxbnFb7kVFFFUZGj4e0s61rtpYgHZI+ZCP7g5b9Bj8a99RVRAqgBQMACvOfhTpPF3qsi9T5ERPp1Y/ngfga9IrWKsjzcTO87dgoooqjnCiiigAooooAKKKKACiiigAooooAKKKKACiiigAooooAKKKKACiiigAooooAKKKKACiiigAooooAKKKKACiiigAooooAKKKKACiiigAooooAKKKKAEPIry/xHp/9na3PGoxHIfMT6H/6+a9RNcr450/ztPjvEHzQNhsf3T/9fFY143genlVf2WISe0tDhaKKK88+uCiiigApCFYYIBHoaWigCpLZjrEcf7Jqq6MhwwIPvWrTWUOMMAR71am1uYToJ7aGXTJohLGR3HIPpV2WzIyYjn/ZPWqxBQ4IIPoa0Ur6nJOm1pJGSQQxB4IODSojSOqIpZ2IVVHcnj9atXkP/LRf+BVu/DzSP7T8URyuuYbMec2e7dF/Xn8K6Iu55VZeyu+x6toOlro2i2lkuP3MYDEd2PJP5k1o0UVueM227hRRRQIKKKKACiiigAooooAKKKKACiiigAooooAKKKKACiiigAooooAKKKKACiiigAooooAKKKKACiiigAooooAKKKKACiiigAooooAKKKKACiiigAooooAKgvLZLu1kgkGUkUqR9anxRQCbTTR5DeWkthcvb3AKuhxyMbh6j2qD8K9entILoATxJIB2ZQapP4b0mT71hD+C4/lXJLDa6M+ipZ5FJKpH7jy+kr0pvCGjv/y67f8AdkYf1qF/BGlN0WZfpIf61H1efkbrOqD6M88orvz4F00/8tLgfRx/hSf8IJp//Pa4/wC+h/hR9XmV/bOG8zgKWu+HgTTf+elwf+Bj/Cnr4H0sdfPP1kNH1eYf2zh/P7jz6mtGsgwwB/pXpKeDdIXrbs3+9I3+NTJ4X0hOljEf97J/nTWHn3M5Z1Qt8Lf3Hkstof4PnB42nqf8a9H8A6C2iaKzToUuLp/MYHqq9FB98c/jW/DpllbMGgtIUYdCqAEVarop03Dd3PIxuNjiElCNkLRRRWp54UUUUAFFFFABRRRQAUUUUAFFFFABRRRQAUUUUAFFFFABRRRQAUUUUAFFFFABRRRQAUUUUAFFFFABRRRQAUUUUAFFFFABRRRQAUUUUAFFFFABRRRQAUUUUAFFFFABRRRQAUUUUAFFFFABRRRQAUUUUAFFFFABRRRQAUUUUAFFFFABRRRQAUUUUAFFFFABRRRQAUUUUAFFFFABRRRQAUUUUAFFFFABRRRQAUUUUAFFFFABRRVTUdStNJs5Lu/uI7e3jHzO54/+ufYUAW6K8s1j40RRyGPRdPMqg4Ety20H6KOcfUj6Vz8nxe8Su5KmxjH90QE/zanysD3OivF7H4zaxC4F9Y2lzHnnZujb+o/SvQPDPxA0jxORDA7W95jm3mwGP+6ejD6c+1KzQHUUUUUAFFFFABRRRQAUUUUAFFFFABRRRQAUUUUAFFFFABRRRQAUUUUAFFFFABRRRQAUUUUAFFFFABRRRQAUUUUAFFQXs5tbC4nUBmijZwD3wM4rynTvjJqV7f2lu2l2irPKkZYSNxuYA/lmi1wPXaKK8n+JvjfVNO1v+ydLne0SKNXllQDe5bnAJ6ADHTuaErgesUV5b8L/ABtqeq6rJpGqzNdDyjJFKwG9cEZBI6jnOTzxXqVDVgCiiigAooooAKKKKACiiigAooooAKKKKACiiigAooooAa7rGhdyFVRkk9hXzv418WT+KtZeUuwsIWK2sWeNv98+56+w4r23xvO9t4K1iSMkOLVwCPcY/rXhHhG2huvF2kQXAUxNdJuU9DjkD8SAKpdwOy8JfCWTUbWO916aW2jkG5LWLhyP9on7v0HPuOldrF8MPCsUYU6WJD/eeaQk/wDj1dbRU3YHn2r/AAe0W6iY6ZLPYzfw/MZE/EHn8iK8m1nR9Q8MawbS8DQ3MRDxyRnAYdnQ+nH1BGK+mq5Dx74Kbxhb2f2eeK3uLdz+8dSwKEcjj3ANNPuA74deK28T+Hybog31owjnIH3/AO6/4j9Qa62uF8B+A73whqV1PcX8NxDPEE2RoR8wOQefYn861fGPjSDwdHaPPaTXP2lmUCNgNu3B7/Wl1A4741ySRyaP5cjpkTZ2sR/c9Km+CkjyWusb3d8SRY3MTjhvWuR8e+NIPGDWJt7Oa2+zb8+YwO7dt6Y9Nv61J4C8cW/g+G+S4s5rk3LIwMbAbdoI7/WqtoI96orz3SPi5Z6vq9pp8el3Ub3MojDs6kLnvXoVTawworze9+MllZ3lxbtpN2xgkeMsHTB2nH9K67XPFWmeHdPju9SmMfmAeXEo3O59AP69PeiwG1RXlF18bT5hFpouYwes0+GP4Acfma7zwjr7+JvD0Gpvbi3aVnUxht2NrEdfwotYDboori9d+KehaPI8EDSahOpwVt8bQfdjx+WaAO0oryd/jc+/5dDGz3uef/Qa1tJ+MWjXkgj1C3uLBmPDtiRB9SOR+VFmB6FRUdvcRXcCTW8qSxSDcrochh7EVJQAUUVheIPGOj+GQBqN0BMwysEY3yH8B0HucCgDdory26+NsKuRaaNK69mlmC5/AA02D42pvAutEcL3aK4DEfgVFOzA9UorA8O+NNH8Tgrp9wRcKMtbyjbIB647j3Ga36QBRTZH8uNnIztBOBXnNr8ZbG6u4IBpN2pmkWMMXTjJx/WiwHpFFYfiPxdpXheBX1Gc+ZJzHDGN0j/QenucCuFm+Nw8z/R9EYx56yXGCfyX/GizA9WorgdC+Lmkapcpb38MmnSucK0jBoyfdh0/EAe9d7kbd2Rj1zRsAtFcLrvxZ0XSp3gs0k1GZDhjCQIwf949fwzWEvxubzPm0MeX7XPP/oNFmB6vRXLeGfiBo/ieTyIWkt7zGfs8wALf7pHDY9ufaupoAqav/wAga9/695P/AEE1806D/wAhvS/+vqH/ANDWvpbV/wDkDXv/AF7yf+gmvmnQf+Q3pf8A19Q/+hrVIR9Q1yHjD4e2Pi2eO5M72l4i7PNRQwdeeGXvjJ5966+uW8Y+ObfwfJaJcWc1z9pDkGNgNu3Hr/vVKGN8HeArLwiZZ45nuryVdjTONuF64VR0BOD36CurrmvB3jODxjFdyQWktsLZlUiRgd2QT2+lN8ZeNoPB32Tz7Oa5+1b8eWwG3bj1/wB79KNbgcV8apZI9R0nZI6ZilztYjuvpWh8FZHk0zVd7u+J0xuJOPl964rx54xg8Y3NlLb2ktsLdGUiRgd2SD29MVZ8B+O7fwdaXkM9lPcm4kDgxsBjAx3qraCPeKK4DRfizZ61rNppyaZcxPcybA7OpC8E9vpXf1IwooooAKKKKACiiigAooooAKKKKACiiigCrqVjHqemXVlN9y4iaJjjsRj+tfNV7ZXmgaw9rPuhvLSUYYcYIOQw9jwQa+n65rxZ4J07xZADcBoLtBiO5jHzD2I/iHsfwIpp2Ax/CnxR03V4I7fV5Usb8YUlziKQ+qt2z6HFd3HIkqB42V0I4ZTkGvAdb+GviHRyxW0+3QDpLbfMce69R+v1rBstV1PRJitneXdlKp5RHKY+qn+op2vsI+nqK8M0v4ueILFlW8FvfxDrvXY//fS8Z+oNei+GfiPo3iSRLfc1netwIJiPmP8Ast0P04PtU2Yzrq53xX4Ns/F6WqX09xCLZmZfJKgndgHOQfSuiooA8G+IXgyz8IPYCynuJvtPmbvOIONu3GMAf3jT/h74IsvF8N+97cXEJtnRV8kqMggnnIPpW98bv9bo30m/9kqf4I/8eus/9dIv/QWqr6CNfS/hPpOk6raX8N7fPJbSCRVdlwSPXC9K7qiipGfMGt865qQ/6epf/QzXR2+maz8TfEM11AoigjwnmSsTHAgHCD1PfA7nJxXOa2ca5qR9LqU/+PmvoPwfpUWj+FdOtYlAPkrI5A+87DLH8zVN2EcdB8E7ERj7Rq928mOTHGij8jmu28L6AnhnQ4tNjnedImdg7qATuYnt9a16ztf1MaNoF9qBxm3gZ1B7tjgfngVN2xnmXxR8cSy3cugaZIyQx/LdyqcF2/uA+g7+p46A553wh8PNR8UILnetnp4OBM65L4/uL3HucD61keHtLk8SeJ7Sxldma6m3TODzt+85+pAP519JW9vFa28cFvGscUahERRwoHAFU9NBHAx/BjQxDtkvNQd/7wdAPy21yfiv4V3uh2j3umztfWsY3OhXEqD1wPvAe2D7V7fRSuxngXw98aS+G9VjtriUtpVywWRSeImPRx6e/qOete+9eRXzp490aLQ/GF9aQKFt3ImjUDAVX5x9M5H4V7R4B1NtW8E6bcSNulWPynJ7lDt/M4B/Gh9wIPiB4s/4RTQhJBtN9ct5duG6A92PsB29SK8OsLDUvE2siC3El3e3DFmdzkn1ZmPQD1/D2r6VurO2voTDd28U8R6pKgZT+BrN0XwvpHh+e4m0uzW3e4xv2knp0Az0HPQUJ2A4nS/gtZJCG1bUZ5pSOVtwEUfiQSf0+lTaj8GNLktz/Zt9dwTAfL5xEin68A/rXpFFK7A+ZL2z1HwvrzQSFra+tJAyuh6dwwPcEc/ofSvoDwlrw8SeGrTUcBZXXbKo6K68N+GRn6GvMfjOIR4msmQr5rWuJAOoAY7c/mfyro/gtKzeG7+In5Y7skfii1T1VxHoVz/x6zf7jfyr5dsZltb22uGUssMqSFQcZ2sDj8cV9RXP/HrN/uN/KvlmNGldI1+87BR+PFCGd1pHhbVfiVrF1rV5MbWzkkIErDcSB0RB6KOM9M56nNdXJ8F9FMG2K+v0lx98shH/AHztrutL0+HStMt7G2ULFbxrGo+nf8at0rgfOHivwne+E9QW3uyssMoJhnVcCQDqMdiMjjnrVz/hNtUuPCEPhyMyM5k8sSq2XeI9IgOvXj6YFejfGKFJPB0crAb4rqMqfTOQf0NeffC2yjvPHdoZlDCCOSZQf7wGB+W7P4U73VxHTaB8GRJapNrt5JHKw5t7bA2exY5yfoPxNWtU+C1k1ux0nULiKYfdW4w6t9SACPrz9K9OopXYz5euba80TVXhmD217aS9QeUYcgg/kc9wa+h/CWt/8JD4ZstRbAllTEoHQOvDfhkGvK/jFbJD4vhlQANPaKz+5DMP5AD8K7D4OSF/B0ynol5IB9Nqn+ppvVXEdnq//IGvf+veT/0E1806D/yG9L/6+of/AENa+ltX/wCQNe/9e8n/AKCa+adB/wCQ3pf/AF9Q/wDoa0RA+oa8l+N3/Hzo/wDuS/zSvWq8l+N3/Hzo/wDuS/zSlHcZZ+CP/HnrH/XWL/0E113izwXZeL/sn224uIfs27b5JUZ3YznIP90VyPwR/wCPPWP+usX/AKCa9Roe4HgfxB8IWfhG6sYrOeeYXCOzGYqcYIHGAPWrHw+8DWPi6zvZry4uYWt5VRRCVGQVzzkGtb42/wDIS0j/AK5S/wA1rQ+CX/IL1b/r4T/0GnfQRq6R8KtK0bWLXUYL29eW2fequUweMc4X3ruaKKkYUUUUAFFFFABRRRQAUUUUAFFFFABRRRQAUVma34g03w9bxz6rc/Z4pH2KxRmy2CccA9gaq6R400LXb77Hpl+s9xtL7PLdeB35A9RQBu1S1DR9P1aMpqNlb3K4x+9jDY+hPT8Ku0UAcBrHwf0W9Rn0ySbT5j0CnzI/++Tz+RFeUeIvDOo+F7/7NqEYG7mKVD8kgHcH1HHHUfrX0tXD/Fu3hl8ESSyBfMhnjaJj1BLbT+hNNMCv8LfGE2u2Mum6jIZLy0UFZWOTLH0yfcHjPfI716BXgvwokePx7aqpOHhlVsdxtz/MCveqHuB5P8bv9Zo30m/9kqf4I/8AHrrP/XSL/wBBaoPjd/rNG+k3/slT/BH/AI9dZ/66Rf8AoLU+gHqNFFFSB8v69/yGdT/6+Zv/AEI19K6T/wAgey/64J/6CK+ate/5DOp/9fM3/oRr6V0n/kD2X/XBP/QRVMRbrkPinKYvAF+F/jaND9C6119cv8SLVrvwFqiqCWjjEuB/ssGP6A1K3GeD6Zq13ol+l7p83kXCAqr4DYzwevHNbf8Aws3xR/0GD/36j/8Aiab8PZLZfG+npeRRywzF4isihgSVOOD74/OveP7C0r/oGWX/AIDp/hVN2EeE/wDCzfFH/QYP/fqP/wCJo/4Wb4o/6DB/79R//E17v/YWlf8AQMsv/AdP8KP7C0r/AKBll/4Dp/hSuuwz5u1bXLzXbwXep3InnChNxAXgfT6mvY/g6+/wQRnIW7kA/Q/1rrv7C0r/AKBll/4Dp/hVi2tbezi8u1gihjznbGgUZ+gobuAXl5b6fayXV3MkMES7nkc4CivNNZ+NEEUjR6Jp7TgHAmuCUU/RRzj64rP+MutSy6ra6PG5EEMYnkUHG5zkDP0Az+NZ3w9+H8fieOTUNSkdLCNyipGcNKw689gMgccn2oSVrsCvd/FjxPOx8u5trZT2igHH4tmstvGXijUiUGr38pb+GA4z/wB8ivc7HwZ4e01QLbR7MEfxPGHb82ya14reK3XbDEka+iKAP0ougPmXUtO1KxeOXVILiKS5BdTcZDuBxnnn869V+Cn/ACAtS/6+h/6AtYvxrYf29pi55FsxI/4F/wDWNbXwU/5AWpf9fQ/9AWn0Eei3P/HrN/uN/Kvl2y/4/rb/AK7J/wChCvqK5/49Zv8Acb+VfLtl/wAf1t/12T/0IURGfU1FFFSBw3xg/wCRHP8A19Rf1rhPhF/yPK/9esn/ALLXd/GD/kRz/wBfUX9a4T4Rf8jyv/XrJ/7LVLYD3SiiipA8X+NH/I1WP/XkP/Q2rqPgz/yKNz/1+v8A+gpXL/Gj/karH/ryH/obV1HwZ/5FG5/6/X/9BSn0A7XV/wDkDXv/AF7yf+gmvmnQf+Q3pf8A19Q/+hrX0tq//IGvf+veT/0E1806D/yG9L/6+of/AENacRH1DXkvxu/4+dH/ANyX+aV61Xkvxu/4+dH/ANyX+aUo7jLPwR/489Y/66xf+gmvUa8u+CP/AB56x/11i/8AQTXqND3A8h+Nv/IS0j/rlL/Na0Pgl/yC9W/6+E/9BrP+Nv8AyEtI/wCuUv8ANa0Pgl/yC9W/6+E/9Bp9BHp1FFFSMKKKKACiiigAooooAKKKKACiiigAooooA5b4iaHJr/hC5ht1L3EBFxEo/iK9R9SpI+teHeHtbm8P65a6nbjc0LfMhON6ngr+I/XFfTVeY+NvhY1/cy6j4f2JPId0tqx2q59VPQE+h49xTT6MDuNB8Sab4jtBPptwsnHzxk4eM+jL2/l6ZrWr5hurDU9Cuh9qt7uxnXoxBQj6MOv4GrSeM/EMaBV16/2gcZnJ/nTsI+j7m6gsoGnupo4YUGWeRgoH4mvE/iR45i8SzR6fppJ0+B97SkY85+gI/wBkZP1zn0rkLi91DW51FxcXd/KTwrO0p/AV13hj4Wapq0yTasj6fZZyQ3+tcegX+H6n8jRawGn8GtDkk1C71qVCIokNvCSPvMcFsfQAD8a9fqrp2n22lWEVlZRLFbwrtRF7CrVS3cZ5V8bom2aNNj5A0qE+hO0j88H8qqfBjVre21DUNOmkVJboJJFk43Fcgge+CDj2NejeKvDsHijQptPmby3JDxSgcxuOh/mMehNeB634Y1fw7ctHqFnKgU/LOgLRt7hh/XB9qpaqwj6Wor5z8K67fw+KtKlku7yeNLhVZDI7jaflPHsCTX0ZSasM+X9e/wCQzqf/AF8zf+hGvpXSf+QPZf8AXBP/AEEV84a5ZXZ1nUiLS5INzKQRCxz8x9q+j9LBGk2YIIIgQEHt8opsRbqK4gju7eWCZd0cqlHB7gjBFS0VIz5n1nS7rwt4hms2ZkmtJA0Mo7rnKOP0/EEV7h4N8aWfirTkG9ItRjXE9vnBz/eX1U/p0NL4y8FWni6xXcwgvYQfJuMZx/st6qf06ivFdY8K654auc3dpPGEPyXMOWT6hh0/HBqtxH0jVTUdStdJspLu+nSCCMZZ3P8AnJ9hXz1F478Rwp5ceu3e0Djc4b9TzVSS51jxLdIJJL7U5+irlpMfQDp+lFgOqu/i1ri63c3Ni8QsWf8AdW08YOFHA5HOT16969h0K7u77RbS61G3S3upow8kSEkJnnHPtivOPA/wtmguotS8RIq+WQ8NnkNk9i/bjrtH4+ler0nboM8P+MFk9v4xjuSD5dzbIVPbKkgj8OD+NdX8H9atZ/D76SZFW7t5HcITgsjHO4evJI9uK6Lxp4Tg8W6P9mZhFcwnfby4ztbuD7Hv+B7V4Vquh6v4XvQL23ntZI2zHOhO0+6uP/rH2prVWEfTFVNR1K00myku7+4SCCMZZ3PH/wBc+wr59j+IHiWKPYuuXBX1Yqx/MjNLY6b4k8dXqYa7vSDzPcMfKj9eTwPovPtSsMj8X+Im8U+Ip7/ayQgCOBD1VB0z7kkn8a9H+Cn/ACAtS/6+h/6Atcj498KL4dGj2NjDLOy27tPMkRPmOWHJx0HYDsBXYfBmGWHQ9REsUkZN0CA6Fc/IPWm9hHodz/x6zf7jfyr5dsv+P62/67J/6EK+orn/AI9pf9w/yr5ksrG7F7bZtLkASoTmFuPmHtQhn0/RRRUgcN8YP+RHP/X1F/WuE+EX/I8r/wBesn/std58XIpJfBJWKN5G+0xnailj39K4f4T2txF43VpbeaNfssnzPGVH8PrVLYD3CiiipA8X+NH/ACNVj/15D/0Nq6j4M/8AIo3P/X6//oKVzXxktp5/FFk0ME0iizAJSMtj529K6f4PRSQ+ErhZo3jY3jkK6lT91PWn0A7PV/8AkDXv/XvJ/wCgmvmnQf8AkN6X/wBfUP8A6GtfSurAnR70AEkwOAB3+U1846HZXY1nTCbS5AFzCSTCwx8w9qaEfTVeS/G7/j50f/cl/mletV5R8abeae50fyYZZMLLnYhbHKelKO4yb4I/8eesf9dYv/QTXqNeY/BaGWG01fzoZI90seN6Fc/KfWvTqHuB5J8bIW+06PPj5CsqZ9/lP8v5UnwX1W3hn1HTZpAk05SaIE/fwCGA9xxxXf8Ai7wzD4q0OSxlYRyqfMglxnY46H6ckH2NeC6x4b1bw9cmPUbOaIqflmQEo3uGH/1j7U1qrCPpeivnjwbrl/F4w0l3u7ueMThGUyu4Ct8p49s5/CvoepasMKKKKACiiigAooooAKKKKACiiigAooooAKKKKAGyRpKhR1V1PUMMiqR0HSmbc2l2Jb1Nun+FX6KAIYLO3tVxbQRQj0jQL/KpqKKACiiigAoIDAgjIPaiigBiQxxklI1UnqQAKfRRQAUUUUAFFFFABRRRQBUfSNPlbdLYWrt6tCpP8qnigit02QxJGv8AdRQo/SpKKACiiigAprosiFHUMpHIIzmnUUAUP7C0rfv/ALMst/Xd5CZ/lV1EWNAqqFUDgAcCnUUAFFFFABRRRQAUUUUAFFFFABRRRQAUUUUAFFFFABRRRQAUUUUAFIQGBBAIPY0tFADI4Y4s+XGi567Rin0UUAFFFFABRRRQAUUUUAFFFFABRRRQAUUUUAFFFFABRRRQAUUUUAFFFFABRRRQAUUUUAFFFFABRRRQAUUUUAFFFFABRRRQAUUUUAFFFFABRRRQAUUUUAFFFFABRRRQAUUUUAFFFFABRRRQAUUUUAFFFFABRRRQAUUUUAFFFFABRRRQAUUUUAFFFFABRRRQAUUUUAFFFFABRRRQAUUUUAFFFFABRRRQAUUUUAFFFFABRRRQAUUUUAFFFFABRRRQAUUUUAFFFFABRRRQAUUUUAFFFFABRRRQAUUUUAFFFFABRRRQAUUUUAFFFFABRRRQAUUUUAFFFFABRRRQAUUUUAFFFFABRRRQAUUUUAFFFFABRRRQAUUUUAFFFFABRRRQAUUUUAFFFFABRRRQAUUUUAFFFFABRRRQAUUUUAFFFFABRRRQAUUUUAFFFFABRRRQAUUUUAFFFFABRRRQAUUUUAFFFFABRRRQAUUUUAFFFFABRRRQAUUUUAf/2Q==;" parent="1" vertex="1">
                    <mxGeometry x="320" y="150" width="134" height="78.31" as="geometry"/>
                </mxCell>
                <mxCell id="XypIK83r2j00tN3dOgXR-9" style="edgeStyle=orthogonalEdgeStyle;rounded=0;orthogonalLoop=1;jettySize=auto;html=1;exitX=1;exitY=0.5;exitDx=0;exitDy=0;entryX=0;entryY=0.5;entryDx=0;entryDy=0;" parent="1" source="XypIK83r2j00tN3dOgXR-4" target="XypIK83r2j00tN3dOgXR-5" edge="1">
                    <mxGeometry relative="1" as="geometry"/>
                </mxCell>
                <mxCell id="XypIK83r2j00tN3dOgXR-4" value="" style="shape=image;verticalLabelPosition=bottom;labelBackgroundColor=default;verticalAlign=top;aspect=fixed;imageAspect=0;image=data:image/jpeg,/9j/4AAQSkZJRgABAQAAAQABAAD/2wBDAAsJCQcJCQcJCQkJCwkJCQkJCQsJCwsMCwsLDA0QDBEODQ4MEhkSJRodJR0ZHxwpKRYlNzU2GioyPi0pMBk7IRP/2wBDAQcICAsJCxULCxUsHRkdLCwsLCwsLCwsLCwsLCwsLCwsLCwsLCwsLCwsLCwsLCwsLCwsLCwsLCwsLCwsLCwsLCz/wAARCAEKAYIDASIAAhEBAxEB/8QAGwABAAIDAQEAAAAAAAAAAAAAAAEHAgUGBAP/xABNEAACAgECAwMIAwoKCQUAAAAAAQIDBAURBhIhMUFxExQiNVFhgbN0kaEVIzJCc5SxstHwFjRSU1R1gpLS4SQzRGJyhJPB00NFg6K0/8QAGwEBAAIDAQEAAAAAAAAAAAAAAAIEAQMFBgf/xAAwEQEAAgIBAwIFAgYCAwAAAAAAAQIDEQQFITESQRMyM1FxFGEVIiM0gcFCsZGh8P/aAAwDAQACEQMRAD8A8G7G7IB1XyxO7G7IAE7sbsgATuxuyABO7G7IAE7sbsgATuxuyABO7G7IAE7sbsgATuxuyABO7G7IAE7sbsgATuxuyABO7G7IAE7sbsgATuxuyABO7G7IAE7sbsgATuxuyABO7G7IAE7sbsgATuxuyABO7G7IAE7sbsgATuwQAAADIAAAAAAAAAAAAAAAAAAAAAAAAAAAAAAAAAAAAAAAAAAAAAAAAAAAAAAAAAAAAAAAAAAAAAAAAAAAAAAAAAAAAAAAAAAAAAAAAAAAAAAAAAAAAAAAAAAAAAAAAAAAAAAAAAAAAAAAAAAAAAAAAAAAAAAAAAAAAAAAAAAAAAAAAAAAAAAAAAAAAAAAAAAAAAAAAAAAAAAAAAAAAAAAAAAAAAAAAAAAAAAAAAAAAAAAAAAAAAAAAAAAAAAAAAAAAAAAAAAAAAAAAAAAAAAAAAAAAAAAAAAAAAAAAAAAAAAAAAAAAAAAAAAAAAAAAAAAAAAAAAAAAAAAAAAPpTVkZM/J41F98++NFc7GvHlW32myhw5xLYk46bak1uvKW40X8U57lnY+NjYtcKsamqmqP4MKoRhFfCPQ+r37inbPPtD1uPoWOI/qWmZVRfoXEOOua3TcnlXa6uS5/VTKT+w1r3TkmmpRe0oyTUov2NPqXHi5VGbTHIolzVTlbCEu6Xk5yrcl7nseXUdH0vU47ZVEXNL0LoehdB+1TXX4dnuZmuefeGvL0OsxvDZUwNtrWhZujWRlNu3Esly1ZCWzUu6Fq7E/Y12/YtT7CzW0WjbzebDfDb03jUgAJNQD16ZRVk6npeNdHmqvyY12w5pR5ouMn2xaZYS4R4YfbhTb+lZf/kNV8kUnu6fE6dk5dZvSeysgWb/BHhj+hT/Osv8A8g/gjwx/Q5/nWX/5CH6iq5/As/3hWQLFzeFuHMfDzr68Oaspxr7YN5GU0pQhKS6Ss2K5W+y39iNlMnrc7mcHJxJiLzHdIANiiAAAAAAAAA9ODiPOzcLDVnk/ObHXz8vNy7QlPfbdez2nQ6rwpjaVpeVmed5F91TpjFSVUK1z2RrfSK5u/wDlELXiJ0t4eHlzUnJSO0OVABJUAB1+BkAb3hnR6dWy75ZUHLCxq15RKUo+Uus6RjvBp+it2/FHQ6rwnpMcDLnp2POOVVDytf36+fPydXDaycl1W+3T2Gmctazp1MPTM2XF8aPDgQFs+q22fVbdjT6poG3bl+OwB+/u6nbcO8OaJnaZjZuXRZbdc7uZSvtjBclsoLljXJLuIXv6IW+JxL8u00q4kFpLhfhhdPuZjv8A4lKT+tvciXC/DD6fcyiO/fBzg/rg0zV8ePs6v8Bza+aP/argd7mcE6bYpvBvvx7PxY2Sd9XhtP0v/t/nx2oadqGmXujLq5ZPrXOLcoWxXTeE+360jZXJFvDn8np+bjRM2jt93jA6Lfw7vZ2FgaXwzw9laZpeTfiyldkYeNdbLznKSc7K4zl0jZt2t9xm94p5Q4nCvypmMc60r8H3zIQqzM+qC2rqysiuuO7e0I2Silu+p8Ce9ql6+i01AAZRAAAAAAAAXUaLifU/udp04Vy2yszfHo2fpRjt6c14L7WjeP7CrOIdSeqajfbCW+PRvj423Y4RfpT2/wB57te7Y5+Kvql73qfKjjYZ15l3PCmy0DSkuxV2Jez/AFs+z3ew3ZouF7K46FpkZzhGShbvGUopr77P3m7jOue/LOEtl15WpbeKRG/zSs8Wd4ad/Z8srGx8yi/HyIKdNsHCyMl0af7/AGIqnU9Pu0vNyMSxuSg1KqbW3lKpdYy8fb70y3TjuOMRSo0/Oikp1WvGsfe4WJzi/g0/rNmG8xOnP6vxYy4Zv7w4YAF14n3bDRPXWifTYfqyLD4llZDRNUnXOUJKupqUJOMo/fYdjXUrzRPXWifTYfqyLB4paWgatvsl5Ordt7f+tAq5vmh6rpP9nl/z/wBK1881Df8AjmZ+cX/4gs3UP6ZmfnF/+I83PVv/AKyHwkhz1/zkf70SzqHm5yZN9pl6Xl58k4vLynFpqUZZFzTT9qcj4JSk1GMZSlLZRjCMpyk/corchOL7Gn4NP9BtuHs3HwNVpycmzyeP5C+uyXLKXak1soJvuMT2jcM44+JkiuSXwr0fXLtnXpma0+qc6lVv/wBVomzRdeqTlZpmYo97jBWbbe6pt/YdnZxtosW1VRnWbd/k64R+HPPf7D74XFui5ttdD8tjzskoQ84jDklKXRRUoSa3fwNHxL/Z3I6fwbT6Iy7lW3e00009mn0afsa7QWTxHoePqGLdk1VqOdRXKdcoL0rox9J1S29v4vXt2K2T5l4rfddjbN2PJ64cvncG3DvFZncShtJNt7Jdr3PXRpmr5cYzxtPy7K5LeM/JOEJeErGkdNwloePkVvVcuuNm104YVc4qUIqt8rt5X0333S9m31b7U+JtJ0y2WNLyt+RDbnroUdq21ulOcmlv39/aa7ZZ3qq9xumUnFGbkW9MT4cBPRdfqW89LzF/wQVnypSf2HhlCyEnGyE4TXbGyMoSXwktzv6uN9JnsrcXMr333aVdiX92XN9SOd4o1LF1LOx54k/KY9WJGEZbNenOUpS3Ulv2bGa3tM6mGrlcTi0x+vDk3+zycP8Ar3RPpM/kWnd8WRnLRMyMIWTk7MXaNcZTk/v0O6HU4Th/15ov0mz5FhZ2fm42nY1uXkuaprcFJwi5y3nJQWyXia83a8On0isX4l6zOo7qi8hlf0XM/Ncj/ARKq+Eeayi+EN+XmtpthHd9yc0kWL/DLh3+Vl/m0zR8S69pWq4NWPiSudsMmu1+UplBcqhOL6vxJxkvMxuFHN0/jUpNq5dzH4cmQ2opt9iTb9vwJNtw9gfdHVsSuS3px355kb9jjW1yR+MtvqNtrajbkYMc5ckUj3l3fD+BHSdIohclC2cZ5ea3+LZNc8ubwW0fgfTRdWp1nGvuhFQlVk3UyhvvtBS3g/jFpnj4uz/M9LdEJbW58vN17fJJc1j/AEL+0cvwlnPE1SOPJ7U58PItN9FdDeVb8e1fEqembxN3sr8uvGzU4seNd3k4g0/7m6plVRjtTe/Ocf8Ak8k23KK8HujUlh8Y4HnOnV5kF98wJc0turdNm0Z/V0fwK8LOK3qq811Tjfp+ROvE+DvRZvCXqDTf+Z//AEWFZd6LO4S9Qab45Pz7CGf5VzoX15/DhtfnP7s6vHnnyrKl6PM9l6MexGuruyKm5VXXVy7nVZOt/XFo9+v+utY+lS/VRrDZSImsObysl4z21b3dVoPE2dDKx8PULZZFF866a7rNvK1WzfJHmaS3Tey93budVr+n16jpmVBxXlaa55GPLbeUbIRckl4rdPxKvprstvxKa03Zbk49daXfKViX6Ny4rpQrx75z25YU2ylv7IxbZWyx6bRp6LpWW3JwXrl76Uw2ns12NJrb39S29D9S6H/V2F8mJUi/BXgi3ND9TaH/AFdhfJiT5HiFXoX1bxHtH+1Xaj6w1T6fmfOmeU9Wo+sNU+n5nzpnlLFflcDP9S35AASaQAAAAAAAFlcVan5hp0qapbZOdzUV7dsa9vvk14Lov+L3Fa9F0+rw7i09R4f0rVL45OZ5zKcK1VBQyLYQhFNvpGLS36s5riPh/SNKwK8nEherJZVNLdl9ti5ZRm2uWba7inivEdnqercTPlmc249NY/y4+XIt3KKey37Fv0/foWdwvpS0zTKnZWo5WZtk5PTZxcl6Fe/+6tl9ZxfDmmvU9UojOO+NicuVk7ro2n96g/F7vwTLSXQZ7R4S6Jx5iJzW/EBoeLknoWY++NuI4+5+WgjfHL8a5Ea9NxsbfaWVlRe3trpTnL7eU00+aHZ50xXj3mfsr3/t0AQOk+d+7YaJ660T6bD9WRauTLFjVZLKdKx1He2WQ4KpLdfhOfolVaJ660T6bD9WRYXFHqLVfydXzqynnjdoes6Nb08a9vtP+k+ccH/z+i/38T9o844Q/n9E/v4n7SrAT+B+6rPW+304dbxbbo1lOnfc6zBk43Wu3zSVLaXItubyfXY5L92F39P2eD/fuOt4Y4cx82mOpahDylM5PzWiX4MoxbXlLV37vfZe5E/pV7qPpv1LkbpEQ5SuFtz5aa7bX2bU12WPw9BM+luHnVxflsPNri1tzTxr4r63Hb7Szc3WdB0dxx7bIwsjGLWPjV80oxfZ6MVsvrPAuNNAk0nXmwjv+FKiDikuu+0Jt/YQ+LafEL09M4+OfTbLETDb6PfZk6VpN9vWy7Cxp2N9rk6482/xKoyIqF+TBbJQvvgvclNr7C4cW+nKx8fJobdN9cLa204txkt1umVBl/xvO+lZHzJEMPzS39biIw44idrE4Ruqs0TFqi1zY9mRTbFfiydkp9fFNP4nL8SaJqOPnZuZXTZdiZNsr/KVRc5VSn1lGcY7y6Pfrt2bew1mmarnaVe7saSamlG6qzd12RXt9jXc018ew7fT+L9Hy+WGTzYl0nttf1qbb7rIr9KRm0WpabQY83H5uCuDJbUwrhNNdGn3dO4ktLP0HQtVg7ZU1qya5oZOK1Gct+yXNDo/jucDrOjZWjXwhOatou5vIXJbOXL2xmuzf9vwW2mSLdtd3M5fS8nGj1x3qjh/17on0mfyLTuuLfUWb+UxvnROF4f9eaL9Jn8iw7ri31Fm/lMb50TVl+eHR6b/AGOX/KskAC1Ly4WBwXgKjTrc6S9PULN4fR694V/X1fxODoosy8jGxKulmVdXRB/yed+lL4Ld/AuGmiGPRTRVtGFNUKa1tvtGMVFdNyvnt7PSdE48WyTl14/7VzxZm+d6tbVGW9eFDzWL7nP8Kx/W+X4GijOyuVdtT5bKpwtra/FnCSlFnay4Hdkp2WatbKdkpWTl5vDrOT5pP8Lve5j/AAEgv/dLd+5+b1/tFclIjUtefp3Ly5py69+3d1GLdj6rptN2ydOZjLnj7px5ZRfh1RVOZi2YWVlYlm/Nj2yq3a25op+jJeK2fxLR0XS5aRhvDeVPIgrbLK5ThGHk4z68qSft3fxOU41wPJ5WJnwiuXJg6Ltu+2vrH61uv7JrxW1bUOh1Tj2y8auSY/mjy5LvRZvCfqDTf+Z+fYVm+7rvv1LL4S66Bpvv85+fYbc8dnP6D9efw5/VeF9fy9T1HKorxHTfe7K+fIlGXLsl1Sr2+0+FfBevze07MGpJrduy2z7FBL9BuM/jCWDnZmH9z1Yse118/nHLzbJPfbyb/SeKzjrLe/ktOoj7PKXzl+rFEInJrss5qdO+JM5LTvbcaLwth6XdHKuteVmRTVc5RUK6VJbPycN3197f6D4cV6zTjYtum0T5svJjyXKDW9NMvwubbsclukvH485l8V8QZcXCN1eNB9GsWHLJ/wBubcvqNE3zNybbct3KUm3KTfe2+u/iZjFaZ3Zr5HU8OPFOHiV8+6Ozfs+HZ8C29D9TaH/V2F8mJUntLb0P1Nof9XYXyYjkeIOg/Uv+FXaj6w1T6fmfOmeU9Wo+sNU+n5nzpnlLFflcHP8AVt+QAEmkAAAAAAABdRzPGzjHR6pS7FnUN7duyhZv/kdMeDU9PhqMcCq1/ecfNpzLY/zipUnGHg2034e85te07fSOTjnLitSPeHh4Y0x6bplTtjy5WXtlZKfbGUl6Nf8AZWyN6Quz7CJSjCMpycVGKcpSk0oxSXVtsxM+qZTxY64ccUjxCXulv0799+i295V/EeqR1PUJyqlzY2NF4+P7JpPeVnxfZ7tja8RcTwyY2YGmzfkJbwyMmL2Vi7HXU13Pvfw7jkfZ4FnDjmP5peY6vz4v/Rxz2jz+4ACy822GieutE+mQ/VkWFxR6h1X8nT86sr3RPXOjPp0zIdd0tvRl7Wd/xNbTPQtVjGyqT8lVsozi2/v0O5FXN88PU9KtH6TL/wDeysP8wAW3lv3Ouz8OniWzoXItG0Xl25fMMXs/Jx3Km26nY8L8QYuLQtNzpqqEJvzW6X4HLJ7uE33dd3v7yvmrNoiYdzouemLLMXnW4ctn+cefaj5w28jzu/y2/bz87/y2PP8AsZauZouhas1ffRC2bilG+mbjNx7vTqaPCuDOHU197yWu9PJu2afTZ+luYjNGtab83Rs17zesxqZbDh/b7iaJ9Bxt/wDpoq7K/jWb9KyPmSLbrWBp2Pj40Z1U0UwjVVGyxLaMVsus3uVJktPJzHF8ylk3uLj1Uk7JbbbdDGHvaZbes19OHHT7Pjuuq38R2fv3FgcP4GhZui4OPkQwsq5QndbFuErK5Wzdm269JNbpfA9MuDuG5S3VORFbbcscm/Zd/wCNJv7SU5qx5hTp0bLkpF8donbleFtQzaNUwsKE5yxst2xnS25Rg41ysVkE+xrbZ+J1XF9cJ6HkSklvVfizh7pOxVvb4NnsxNI0HRVZkU01UPl2svvtbny+x2WttLwZyfFGvY+oqrCwm5Y1VnlbrtmlbYl6Kgn12W7e/wCzrq367xMQ6l4/R8K2PPbczHaGm0Szyes6LNrb/TIQfjZGVf8A3LC4mpnfompQri5ThCu5Jd6qsjOX2JlXJzjKEoNxnCUZwkns4zi04y/7r37FoaNreFq2PBOcIZaio348mlPfbq4xfVxZPNE7iyp0jLW2O+C095Vdvult2d3gRut9u/bf4Fo2cK8NWzlZPAjGU3zSVVt9cW+38CuSX2Gr4h07QNP0bMpxq8PGuTquqjvBXWShNNrdtzfTdfElGaJ1GmjJ0XJirN7WjUNXwVhecahkZ0lvXg1+Tr3/AJ+7o2vCKa/tG94q1rK0yvBqwrFXk3zlZKbhCbjTBbNbTTXVtfUfbhnGp0/SMWE7Ko35G+VcueCanbtKMX4LlXwOL4izfPtWzJp71UNYtL33ThVvFtPs2b5n8SGvXk7rlr/oeDEUn+az6fwq4nX+3L83x/8AAFxVxMv9uX5vj/4DSA3zjr9nB/XcmP8AnP8A5dPpfFOsy1HAhm5UbMW66NNsXVVDbyvoQlvCO/bt3nXa/g/dDSs2iKTtjFX0flK95JLx6r4lVPdrZbr2Ndz9pa+kalTnabg5M7K42WUxVqnOKasj6Ml2+1FfLT0zExDv9L5E8jHfBmnc/uqdfiv2rfqWfwl6g03/AJn59hwet4cMLVM6mDTplY7qORppV2+lypr2PdfA7nhW2mvQdOjOyuEv9Je0pxTW99j67slln1V2r9Ir8LlXrPtH+3D6/wCutY+lS/Viaw2evNPWtXaaaeTLZppp+jH2GsN9PlhxeX3z3195AATVj2lt6H6m0P8Aq3C+TEqT2+D/AEFr6LdRHR9Ei7ak1p+FunOCafko9NtytyPEPRdBmIvff2VlqPrDVPp+Z86Z5T06h6w1P6blvp77pM8xvr4cLP8AUtr7gAJNQAAAAAAADeYXFOvYUYwdsMmuK2UctSlNf/JFqf17m3hx09l5TTFzbdXHJ6N+Dr3OMBqnFWe8ujj6nyccarZ193HOXJbY+n0wf8q66Vi+qKj+k0Gfq+q6m2svJlKvdNU1rkqjtvt6Me3xbZrwZrStfEIZuocjNGr27AAJqP5AAZDuHLH2bAGDYAAAAAzhZdU/vdttb7d6rJQ/VZlLJzJ9J5WTJeyd1sl9rPkB6U4yXjxKGt+rXX3koAa0jMzPmTsaku1djXRr4o9CzdQSSWZlpLsUci5be78LY84GkovePEsrLLbXzW2Tslv22ylNr4ybZiANIzMz5kHevd+/cAGImY8PusvOUeXzrKUUtklfco7ezbm2Pj2tye7k+1ttt+LZAGk7XtbzKOVduyJQAQ2AAyBDS70iQYNi27iGl3pEgG5Ft3AAAADIENLt26kgwb0IAAAAZAAAAAAAAAAAAAAAAAAAAAAAAAAAAAAAAAAAAAAAAAAAAAAAAAAAAAAAAAAAAAAAAAAAAAAAAAAAAAAAAAAAAAAAAAAAAAAAAAAAAAAAAAAAAAAAAAAAAAAAAAAAAAAAAAAAAAAAAAAAAAAAAAAAAAAAAAAAAAAAAAAAAAAAAAAAAAAAAAAAAAAAAAAAAAAAAAAAAAAAAAAAAAAAAAAAAAAAAAAAAAAAAAAAAAAAAAAAAAAAAAAAAAAAAAAAAAAAAAAAAAAAAAAAAAAAAAAAAAAAAAAAAAAAAAAAAAAAAAAAAAAAAAAAAAAAAAAAAAAAAAAAAAAAAAAAAAAAAAAAAAABkAxtiDIA2xBkAbYgyANsQZAG2IMgDbEGQBtiDIA2xBkAbYgyANsQZAG2IMgDbEGQBtiDIA2xBkAbYgyANsQZAG2IMgDbEGQBtiDIA2xBkAbYgyANsQZAG2IMgDbEGQMbS0//2Q==;" parent="1" vertex="1">
                    <mxGeometry x="500" y="150" width="116.08" height="80" as="geometry"/>
                </mxCell>
                <mxCell id="XypIK83r2j00tN3dOgXR-13" style="edgeStyle=orthogonalEdgeStyle;rounded=0;orthogonalLoop=1;jettySize=auto;html=1;entryX=0.5;entryY=1;entryDx=0;entryDy=0;" parent="1" source="XypIK83r2j00tN3dOgXR-5" edge="1">
                    <mxGeometry relative="1" as="geometry">
                        <mxPoint x="736.46" y="89.75" as="targetPoint"/>
                    </mxGeometry>
                </mxCell>
                <mxCell id="XypIK83r2j00tN3dOgXR-5" value="" style="shape=image;verticalLabelPosition=bottom;labelBackgroundColor=default;verticalAlign=top;aspect=fixed;imageAspect=0;image=data:image/jpeg,/9j/4AAQSkZJRgABAQAAAQABAAD/2wBDAAsJCQcJCQcJCQkJCwkJCQkJCQsJCwsMCwsLDA0QDBEODQ4MEhkSJRodJR0ZHxwpKRYlNzU2GioyPi0pMBk7IRP/2wBDAQcICAsJCxULCxUsHRkdLCwsLCwsLCwsLCwsLCwsLCwsLCwsLCwsLCwsLCwsLCwsLCwsLCwsLCwsLCwsLCwsLCz/wAARCAEKAboDASIAAhEBAxEB/8QAGwABAAIDAQEAAAAAAAAAAAAAAAUGAQMHBAL/xABREAACAgECBAMEBAgHDgQHAAAAAQIDBAURBhIhMRNBUSJhcYEUMpGhI0JScpKTsfAVFjNic6LBBzU2Q1NUVWOy0dLT4fEkNIKzREV0dZW04v/EABsBAQACAwEBAAAAAAAAAAAAAAABBgQFBwID/8QANxEBAAEDAgMFBgUEAQUAAAAAAAECAwQFERIhMQYTQVHRFDJhcYGRFVKhscEiIzPhFiQ0gvDx/9oADAMBAAIRAxEAPwDrgAAAAAAAAAAAAAAAAAAAAAAAAAAAGH2AeY6mu66jHrnbfbXXVH607JRjBfNlZzuMMKrmrwKJZMt/5Sz8FT8Un7b+xHyuXaLfOqdmVjYV/Knhs0zP/vmtR8zsqqXNZOEI+s5RivvObZXEWvZTlzZUqYPtXirwYpfnLef9YipSna3KyUpyfeU5OUn829zBr1GiPdjdZLHZe9VG92uKflz9HU56votbanqOEn5rx62/sTNa1zQH/wDMsP8AWxOX9uyMdT4TqNXhTDPjsta2/quT9odYr1HS7v5HNxJv0hfU39z3PUnuk1s0+zXY47tHz6/E30ZebjS3xsm+l9/wVk4r7N9vuPpTqMT71LHu9lZ23t3PvH+3Wwc+xOLNXoaWQqsqtd+aPh2be6UOn2xZZ9O4j0nPca/EdGRLoqsjaO7/AJk/qv7fkZlvKtXOUT92hy9Gy8XnXTvHnHNNgwmZMpqAAAAAAAAAAAAAAAAAAAAAAAAAAAAAAAAAAAAAAAAAAAAAAAAAAAAAADBh7tNf9AMNEDq/EmJpznRQo5GYujgm/Dpf+skvP3L7u5Ha/wASNOzB02fVNwyMmPk13hU/2sp3X4vd79d38WazKzeH+i3181v0ns/N6IvZPKPCPP5vTm6hn6hb4uXdKyW7cY77Vw91cF0S/fc83QDoaeqqap3md5Xm3botUxRbjaI8gAHh9gAAAAAD28wCUJrS+ItQ05wrnKWRiLZOqyTc4R/1Vj6/Jtl70/UcLUqfGxbFJJ7Ti+k65Pryzj6nKjfiZmXgXQyMa11zS2fTeMo7/VnHs0bDFyrkVRb97fwVfVdFsXaKr9ExRMc58vr6utbjzRDaLrmLq9UuVeFl1Le+iUt9uu3PB+cX93b4zK3N/XbrtVTRXG0/Fzai5TcjiondkAHl9AAAAAAAAAAAAAAAAAAAAAAAAAAAAAAAAAAAAAAAAAAAAAAADA+fUqfE+uOnn0zEm1bJL6XbF9a4S6+HF+r8/d08+kxreqQ0vClYmvpFrdWNHp1n5yfuj3/7nNHKc5TsnJynOTnOT6uUpPeT+f79zW5uRwR3dPWVq0DS4yKvabsf0x0+M/6fPTovsMgGkdD5RG0AAISAw3t6bLvv2R6sTTtTztnh4l1qf+MW0Kn8LLNkz1TTVVO0Plcu0WY4rlW0PMCw1cIa3Yt7bcSnfycp2yX6KS+83vgvPS3WfjN+jpsS+6ZkRi3vClrKtawaZ2m5H03lVwTl/Cmv07uEMe9Lr+Bt5ZfKNqX7SHuoycafh5NVtNnlC2Li38N1s/kfKu1XR71LMsZuPkf4q4lrAHk/RHimJmYiOrJrrpopmqqdog7bt9jTOfN27ITnv0XY+Ox1Ps9oEYlMZGRH9zw+Eev/AMcG7X9rKtRqnDxJ/tR1n83+m7GycnEvqycaxwuqacWuqf8ANkn5PszqOi6rRq2JC+G0LYvkyKt93XZ/ufdf700uUdupI6Pqluk5teSt3TLavKr851e7+cu6/wCpudW0+nKt8VPvR0+PwU/S8+cW5w1e7P6OtA11WV3V1W1TjOuyMZwlF7xlGS3TT9H5Gw5/O8dV8iYmN4AAHoAAAAAAAAAAAAAAAAAAAAAAAAAAAAAAAAAAAAAAAAAAAw+xkiOIM54Ol5dkHtbdtjU+qnbvu170uZ/I81VRTTM+T62bVV+5Tbp6zMQpOv6i9R1C2UJb4+PzY+Ol2cYvrNfnPd/Db0IoRUpONcU3J9FGK3k/XZI91Ok59i9qMao/6x+1+jHcqOTlW6Zmu5Vs61ZizhWabe8REQ8PUx18yaholfTxMibfpXCMV9stzatGwuzne/8A1R/sRrKtWxqeUTv9HirUbEeO/wBED07mzGx8nLurxsWqVl9n1Yx29mK7ylJ9FH9+r6OYnomO9+W61fnKEl81sie0T+C9KqdXJZ41jTvyZRUpWyXry9kuyX/d5eLqGJfriK69vmwsvVotWpmzTNVTOlcKYWKoXZ/Lk5K2fK1/4et9/Yi1u3739iLLFRikopJLoklskjXVdRcnKqyMl7n1XxRtXkXCxFqKIm1tt8HO8vKv5FzivzMz+30ZABkMQNGTi4uXVKnIprsrl3jOMZL4rc3mHvsRMb8k01TTO8Tso+r8KW0KWRpnPbWussZvmtgv9VJ9ZfB9ff5FRsct3BpxcXtJNOLUl5OL7P1R2YqfFGgRya7NRxI8uVWt74LtfBfjfnL9+xn6LbxLGX3l2nn4eUT57POt6lqGVgez018o6+cx5KCB7/mDpvKY3hyqYmJ2kH79ANtwhe+DNSdtF2mWy9vGj4uN5b0Sls4r81/dJehcEcg0zOlp2oYWZvtCu2Ku9PBn7M9/gm38jr0Xuk1ts9mvsKBreL3GRx09Kv38V70bJ76xwVdaWQAaNvAAAAAAAAAAAAAAAAAAAAAAAAAAAAAAAAAAAAAAAAAAMD5exVuJKnqF+FjxtiqMdWzu5Os3bJqKS8lsk9/ziS1HUeVyx8eXXqrLF5esYv8AaQ3X/cUjXNdijfGxuc+M+je6bj12q4vzymOn1aqMbHxo8tUFH1feUvjJ9zcY6mSg111XJ4qp3lu5qmqd5neQAHhAAAMxlOElKMnGS6qUW019hK4mrSXLDJ2a7eIkl+ku32ESDZYWo5GFVxWqvp4fZjXse3ejaqFvjKMkpR2afVNdtjPmVvCzp4suVtuhv2ovq4+9FihONkYTg04yW6a9Dp2l6pa1C3xU8qo6wreTjV2KufR9gA3DFDD7MyH2A5lxTpi0/UHZVHbGzee6tJbRhZv+EivufzXoQJ0zirDWXpGTOMd7MTlyofCHSa+xs5n5+792dC0bJ9oxoirrTy9FA1bH7jImY6TzgABuWnNjpnDOp4+bp2Jj+LGWXi0wqug3tPaK5Iz2fXZrbqczNlN9+NdVfj2Sruqlz1zh3i+3b08mvPfbzNXqWB7da2idpjo2en5s4dzimN4l2Zj0IHh/XqtWqdVqhXnUx3tri/ZnHt4le/XZ+fp2fq5857es12a5t1xtML9ZvUXqIronlIAD5PsAAAAAAAAAAAAAAAAAAAAAAAAAAAAAAAAAAAAGBj1I7U8zwK/Brf4W1eX4sPN/2HvnOMITnJpRgnKT9Euu5Vb7p5FtlsujlLfZ+S8l8itdoNRnDscFHvVfpHjLYYGP31fFPSGvbZf2sAHLZnfqs220bQAAhIABsjcAASABjqHQsOl0ZFNL8WW3O1KFb/xa9H72efTtO5XDJvXt964P8VflSXr6fvtLrudF7PaRXZ/6q9ymekfDzlXs/Li5/bo6QyAC5tSAADVfVG+m+mX1barKpfCcXFnGdtt011XR/L92dqOMW7eNft/lbP8AaZbOzlXO5Hy/lVe0NPKifn/D4ABb1SAASNuPkZGJfRk48+S6mXPXLbfZ9mmvR9U/idW0jUqdVwqcuv2ZPeF1e+7rtj9aO/3p+aafmckT2LBwpqTwdSjROW2PnNUy3+qrl/Jy+f1fn7jQazgxkWpu0+9T+3i3ukZk2Lvd1e7P7ulgx3MlCXkAASAAAAAAAAAAAAAAAAAAAAAAAAAAAAAAAAAACM1e3kx41r6100v/AEx9p/2ED0JHWLN8iuHlXUvtk9/9xHHKO0ORN/Nqjwp5ev6rPp9vgsR8QAFebANlNN2RYq6o7yfWTf1Yr1bNXXyW76bL1fkizYOLHGphH/GS9qxvu5ej+H79zeaNpc6he2q5U09Z/hg5mT3FPLrLTRpWNUk7fws/PnXsfKHY9ix8ZJJVVpeihH/cbgdNsYGPj08NuiIVuu9XXO9UvDdp2Fan+DUJeTr9nr8F0IXKw7cWXte1W3tGa8/c16ln+aPi2uF1c65pOM1s0a3UtEx8u3M0UxTX5x/LJxsyu1O0zvCo9ur8iZ03T+scm+PVbOqD8v58l6+n77ZxNLcLXZkbONc5eFHyez6SZLo02iaBVRV3+VHOOkfzLLzc7ijgtiMgF5jlyaYABIAADDI3I0LQslSVun4u8t25V1xrs69d+evaX3kmOp6ouV253pnZ867dFyNqo3ULVuDrKYzv0uc7Yx3lLGte9iS/yU9uvwf2vs6j169Gtm0000013TT7bdmjtW2++5Q+MNJjRZHU8eO0Miary4xXRWtNxt+e2z+XqWvSdWrrrixfnffpPj8pVfVdLoopm9Yj5wqIALcqgN5Jpxe04tSg/SSe6YAmN42lMTtO8OvaXmLP0/By13uohKaXlYltNfJpo9iKtwTkOzTMnHb3+jZc4x/o7Yq1fe5FpRy7Mtdxfrt+ES6XiXe+sUXPOGQAYrLAAAAAAAAAAAAAAAAAAAAAAAAAAAAAAAAAABWtTbedke7w0v0InjPXqSazsn3uG36uJ5Di+p7+2Xd/zT+6343+Gn5QAA17IejCgp5mLF9vE5v0E5/2FoRWMGShmYsn25+X5yi4f2lnR0jsnw+zV7dd/wCIV3VN+8j5MgAuDVAAAAAAAAAAAAAAAABGa9RHI0fVa5LtjWWr86r8Mv2EmR2uWwo0jV7JvZfQ74J/zrIuuP3tH2sb97Tw9d4fHI27qrfptLku/wBvTcMfL/uGdVj9XMJ6gAEvK5cCS/CazX/Mw7F83ai8lG4Fh+F1qfpXhw++5l5Od61t7bX9P2h0DR9/Y6Pr+4ADUNuAAAAAAAAAAAAAAAAAAAAAAAAAAAAAAAAAACvavDlyoy/Lqi/mvZ/sI8nNXq5qK7V3qns/zZ9P27EGcl7QY82c2vfpVz+/X9VowLnHYj4AANCzxbp7p7NbNP0fkWbDyYZNMJr6yW00+6l7ysm7HyLsaanW932lF9pL3m+0XVPYL29Xu1dfVgZuN7RTy6wtZjqRNWu6Q7Hj3ZVdOQtuaF0lFdV5Tfs/fuScJ1TSlCcJLycZJp/YdVs3aLtEV0TvEqpNVMVTTvG8fFsBjePqvtQ3j6r7UfV63hkGN4+q+1DePqvtQN4ZBjePqvtRnuDeADoOgSAdAAMdTJquyKMeDnfdVVBfjWzjBfbLoNpnoiaojnLZ5FL4z1SKjXpVMk5Nwuy+V/VS611yXv8ArP4L1N+rcYYlUJ0aZ+HvktnfJNU1e+KfVtfDb49iiWWWWzsstnKdlknOc5veU5vq22WjSNKuccX70bRHSJVnVtTo4JsWp3mesw+QAXNTwAw3ypy9E39gSv8AwPTy4GdkNbePmOMPfCqEYr7+YthHaLhPT9L07Fl/KV0p2/0tj8Sf3tkicvzr3fZFdyOky6VhWZs2KKJ8IZABiMwAAAAAAAAAAAAAAAAAAAAAAAAAAAAAAAAAAGu6uNtdtcu04tP3e8qllcqbLKpL2oScevu7FuZFapieJH6RWvbgtppfjQ9fiiq9o9P9psd9R71H6x/r1bLT8juq+Cek/uhAP2eQOZbc9pWTqx1+X7SP1PUY4idNL3ypL06VJ+b/AJ3ofWpajHCh4dftZU17KfXw4v8AHkv2FWlKU5SnJuUpNuUn1k2+7ZZ9I0jv57+97vhHmo3aLtBGNE4uNP8AXPWfL/ZKTk5OT3cm3Jvq233b9589B2HfqXmNo5RG0OXTXMzMzPUAB6eOKfMAAOKfMM80l2lJfCTX7DALJ2ZjfM5/ln+E8U+bPPZ+VL9Jjns/Kl+kzAOl8FPk9cdXmzz2flS/SY57PypfpMwBwU+Rx1ebPPZ+XL9KRh7t9d38ev7QBwR5HHV5gAJeAAEgTPDenPUdVo5o74+G4ZV7fZtPeqPxbTfwiQ8YW2zhXVCU7bJRrrhH60pyeySOp6BpMNIwYVS5ZZNr8XKml0la12j57Lsv+po9YzYxrM0R71XKP5bnScSci9FU9I5ylktjIBz9ffkAAJAAAAAAAAAAAAAAAAAAAAAAAAAAAAAAAAAAAMPbZ79jIfYiRA6jp7qcr6Y71PdzivxH33S9PUr2o6hDBhyx2lkzinCDfSEX+PL+wvu26e5UNb4UeRZZl6bL8NY3O3Hsl7E5PvKuT6p+59Ph51TI7O2a8nv6Pd8Y+L1m6ll0Yk0WI3q8/Hb1Uic52Oc5ycpzblKT82z49TbfRkY1k6Miqym6P1oWJp7eq37r4dDUbWKYoiIjpHg5Vc4+KZudfEABL5AAAAAkAAWXsx/3v/jP8JAAdLAAAAAAAAAJSbjGKlKc5KMIwTcpSfRRil1bfkj14GnajqdnhYVErOvLO2TcaK9/y7H0+S3Z0DROG8PSeW+xrIznFp3SjtGvm6ONMPJe/v8AsNVnapZw4261eXq2mFpt3KnptHm8vDPDv0Dkz86KedZF+FX0ccWEl1Sf5T8/TsvNytIBQMjIuZNyblyd5XvHx6Me3FFEbQyAD4MgAAAAAAAAAAAAAAAAAAAAAAAAAAAAAAAAAAAAAAAADAYHly8HBzq/Cy8eq6HkpxTcX6xfdfIrWXwRg2Nyw8q7HflXavHrXw5mp/bNlu6mTxVRTV1hiXsOzf8A8lMS5zbwbr1bfhTwro+T8SyEvslBr7zzPhTiVPb6JB+9X07fe0/uOn9jHX3HzmxQ1tWhYtU8t4+vq5j/ABV4m/zOH6+n/iH8VeJv8zh+vp/4jp3X3Dr7iPZ6Xn8AxvOfvHo5j/FXib/M4fr6f+IfxV4l/wAzh+vp/wCI6d19w6j2ek/AMbzn7x6OY/xV4k/zSH6+j/iPiXC/EyeywHL3xyMbr9ti/YdSBm4N6rBu97a6/FH4BjedX3j0ct/ixxP/AKOn+vxP+YP4scT/AOjp/r8T/mHUgb3/AJDk/lp+0+qPwDH/ADVfePRy3+LHE/8Ao6f6/E/5g/ixxP8A6On+vxP+YdSA/wCQ5P5aftPqfgGP+ar7x6OW/wAWOJ/9HT/X4n/MEeFuJ5f/AAHL7534239Wbf3HUgRPaHJ/LT9p9UxoGP8Amn7x6OdUcFa3Y149+HRF/kuy6a+XLFf1icwuDNGx2p5c7cya2e1r5Kd/6OHf5tloMmFe1fLvRtNW3yZdnSsW1O8U7/NqqqqphGumuFdcFtCMIqMYr0UYrY2mDJq5ned5bSIiI2iNoAAEgAAAAAAAAAAAAAAAAAAAAAAAAAAAAAAAAAAAAAAAAAAAAAAAAAAAAAAAAAAAAAAAAAAAAAAAAAAAAAAAAAAAAAAAAAAAAAAAAAAAAAAAAAAAAAYbUU3JpJLdtvZJe9nh1XU8XScO3LyN2o7Qqri0p3WtNxhHfp8fRJvyOb238S8V5dlVUZWwg4ydUJOvDxYvdrncltzfHdvbp0JiN0OkvWNDjLlep6epdtnlUdPj7R667KroRsqshZCX1Z1yUov4OPQ5/DgHU3XvPUsSNn5Ece2UP03NP+oR8tO4s4cy6Hixsc8i2FVMsPe3HyLJPpXbFpf1ktl59BtBu6mDRjPKlTjyyo1wyXVB3wpk5Vxs2XMouXXZP9/M3kJAAAAAAAAAAAAOZcM2WviiqLsm482p9JTk12l5b7ExG6HTQAQkAAAHxdbTRVZddZGuquLnZOb2jGK822UjO42ybr1i6HhO+T3cbLK7LbLUunNXRV7SXvb+QF6Bz561/dEpXi3aba6l7UlLC5kl71VLmRNaHxbh6pOGLkwji5s91D2t6LpLf2a5S2fN0fRr5snZG6zgrHE3EGfotunwxqcaxZELZWeOrG48koL2eSUfUs/Xpvt/1ISAAAAAAAAAAACr8PcQ52r6hqeLfTjQrxa+euVKsU5PxZV+1zya8i0AAAAAAAAAAAAAAAAAAAAAAAAAAABzPjPMvy9Zjg1byWJGjGpr6OMsjI5ZN/PeMX+aXzSNMx9JwcfCp2bhHnvs22d18knOx/F/v0Oeaq/o3Ftlt31K9WwMie/bwm6Z7/YdSPU9ER1ZBXuKsbXMnFwo6Qsl3RyXK76NkKh+H4cl1bnHfrsVL+C/7oX5Oqf/AJGv/nkbDpx5c3OwNPpeRmXwpqT5U5buUpP8WEUnJv4L9hzrQcrWVxFpuLk5ebN15OVVkVWZFlkOaui5NSTk4vZpv5HxnWZnFHESxqrOWt23Y+O5LeNGLS34lqXq9k373FeROxutEuOdBU9lTqEop/XVNSW3wlapf1SdwNT03VKndg5ELYxe011jZXJrfacJJSXzREQ4N4ZjQqpY90rOXZ5Er7vHb/K6PlXw5SnZEMzhHW4SrsnOutV2b9U8nDm9pwml3a2aXvSfmORzdUk4xjKUmlGKcpOT2SS6ttsreVxnw9j2SrrlkZTi9nLEhGVfTvtOyUU/ityL441WUK8XTaZyjVfS8zKcN0507tVwW3XZ7SfyRv0Xg3TVi0X6tXK/LuhCydXPZXVj8y3VcVU47tebfn8CNvM3S+m8TaHqc4003TqyJfUpyoqucvdBpuD+UmTX7/vsc54n4ap0uqrUNP540eLCFtUpzn4Fj6wnCct5bb7Lq+/x6TOLxHeuFb9Rm1LOxpPA5p9efI3jCFjXwalL4MCV1PiPRdJn4WRbKzISTdGNHxLIp/lttRXzaPNg8X6Bm2KlzvxbGny/SoRjCWyb2U65Sj8N9vTu9nU+GuH1rtmVm59lzxK7nCSU2rcrJkvFm52fW5Vun0fVt+nWf1fg3S5Yl9ul1SoyqYSsrr8S2yu7lW/JJWOTW/lt5k8hNabr2j6rdZRhXWTtrq8aanTbWlDmUO80kyicMf4VV/nap+yR6eA/766h32/g+H/ux23955uGP8KqvztU/ZImOSHRc7UNP02n6Rm3wpr35Y827lOX5MIR9pv4L9hALjnQXPl8HUFHfbxHTU1tv32jY5bfIrGdLK4m4keJXZy1eNbj0tLdUYlH17En5vZte+SXkS2oYP8Ac90yh4t3iWZcY8reNdZbmKfbmm3Lw4+rT2XuPOyVyw8zDz6YZOHdC6mW6U4N9GujUk9mn7mj0vc5jwbl51OqqrFqyLsPJ3rzeSLlXTJRbhbZKPsKSfR9fPZ77Lbpv7/IiY2IUTjPNycvN0/QcNrmsnRKyLeynfdLaqM/5sV7b/8A5LTo+kYOjY0MfHinZJJ5F8opWX2LfrJ99u/KvJFSez/ugR8XbpkS5N//ALc+XY6ATPQjqEb/AALpL1Jat9Hj9MUHHm/E5n08Xk7c+2639GSQISoPH3/mNF/osr/bqL8UDj/+X0T+jyUvi51Elxvqd2HgU4dLlGed4qtcH7X0etLmgtvyt0vhuvMmeiI6vdmcW8O4dkqXfZfZGTjNYlbsjFryc3tD7JM9GncRaHqk1Vj5Dje02qMiMqrHt+Tv7L+Tf3EbovCWk4mNRPUMarKzrIRnc8iKnVTKXteHVB+xsuzfu38+kdxPw3hYeK9U0yDxpY0653VVPaHLzJK2qL32lFtPp5b/ADcjmueXlY2Fj3ZWVPw6KUnZPlnLlTaiukE35ryNeBn4OpULJwrfFoc51qfJOG8oPla2sSf3FZu1GeqcF5mTa9741LHyGltzW1XQg5L87o/n7j1cD/3ih/8AW5v/ALrGxusGZl4uDj25WVZ4ePVyuyfLOfLzSUF7ME5d2vI+cLOw9Qx45WHZ4mPOVkYz5ZR3lCTg+k0n3T8iM4s/wf1X83G//YqIzQc5abwdPN2UnjvPlCMu0rJZNkIRfuba3AmtT17RtKkoZd/4ZpS8CmLst5X2lKK6JfFo8+n8U6BqN0Meq6yq6ySjVDJg63ZJ9lCSbi38ytcMaFRq/wBI1fVubJjZkWwqrsb5bpxe07rduj67pLy2fwVh1ThXRsvHsWHi0YmZGLlj2Y8FVF2JbxVsYbJx+I5CA4KTWta+n3VLXXuv/ET3T950A55wJzvVdYc9/EeHXz873lzeNLdv39+b3nQxJAACEgAAAAAAAAAAAAAAAAAAAAAAAKJxxpMpOvV6ob1qtY+fsn7MV/J2vby6uMv/AE+h7uGuJsbJoowc+1VZtMVXCy5qMcmK7Pd9FPspLzfXz2VrnGMoyjKKlGScZRkt1KL6NNMpGrcD8853aTbXCMm28TJclXFv/JWRTe3uafxRMeSF5IPXOIMHSKLYRshZqEouNFEWpSjNrpO1R7RXfr37eZSlw9xxWvBhRkqvttXqFaq29NvFX7D26dwNqFs4z1W6uilNOVGNJ2X2deqlator4pMnaDdngjT7cjPydWu5nVjK3Hosl18bJt2dsov0iunvcn6Efot0NF4k5cyXJCFmXgWzl9WLnJKE/g2l+kdMxsfGxKKcbGrhVRTBV1VwXLGMV+/V/MgOIeGK9Xl9KxrIU5yhGE3ZFurIjHolZt1TXk/l18m5ssm++zWz3W66/Ycx4yyqtR1ZUYm1rppr0+Lr2ankWWP2Y7eW8lF+9H3/AAFx9XW8OCyVjbOHLXqEPo3K3tsouxPl93IT/D3CK066GfqE67cyCf0eqpydGO2tnLmmk5S79eVbenmOUCD42w7aMrTJdXCWm14sJ7dHZRKSa/rRZfdNzsfUsLGzMeScba4uUVLd12bLmrlt5p9P+/X41XS8PV8SeJkprqrKrI/Xqsj0Uo/sfub9SivhnjHTbbf4PtlOE+jtwsn6PKaX5cJyivvZHU6LBxrnY9OmPBcovIzbaXGtP2lVXNWObXp0S+fuK/i4ORZwVqF6T9rUf4Qgu/NVVyUSn08ukm/gbcLg3Wc7Id+tXeFVJ818fG8fKv8A5srE3FJ+fWXT7Vf66MeqmONCqCohWqYVcq5FWo8vJt22J6HVUeBM3HeJl6c5RWRXfPIhF9HZTZGK5l59Gmn7mi1Z+bRp+JlZl8kq6K5S6vbmn+LCPvb2S+JSdT4N1GjI+k6JNSrUvErpna6r8eT67V2vo116e0tu3U88eHOLM+SlrGRdXi40LLpSycpZNj5Yt8tVcZSit/NtroOp0fXAf99dQ37/AEBdH5fho9v38jy8Mf4VVfnap+yR6eAuuqai9u2n17vp53dO3zJDReGdawNdjqGQsP6MnnP8FdOVn4bm5fZdaXn16koVPIoycXVczDWR9GseXdiSvlOdcI122bKU3D2uVrZ+/wCZddO4H0jHUbM+yedZ9bk/k8Rb+Sqi+q+MmejiLhmGsNZONZCnPhCMW7E3VfBbrls5eqa8n8uv4tY/gPj6ut4kVkrH+pyV6jBY3K325fEUuX1XJ8n2cbi+4Odotlt+BgXY3Phvknj0JQUNu/JFJJpdnt27Egyp8O8Jx0y2Gfn2QtzYRkqa6uZ043MnFtSkk5SabW7S2T2283bCJTChcX4uTganp+vYq29qmNjf1VkUv2FN+k17L+HvLfpmp4eq4teViyTjJLxK214lM+7hZFdn+/menIx6Mqm7HyK4WU2x5LITXRr9+qKPk8I61p+RLI0DNlyvdRrna6b4Rf4niL2JR+Oz+PcC+kbl61o+DmYmFk5MYZGQ9ku6r3Xs+M19XmfSO/dlSlR/dRvj4U52wj2c1fgVfPno/CHt0fgyGPfDN1e6OVkRn4kaY7yojZvzc9krPalLz6r7dtxsbvHx9/5jRO/8nkvo/wDWVeZ98fU2KWjZaTcI/SKW/JWexbCLfv2l+iSHFWharrF2mzwvo3LjwuVnj2Sg05Tra5UoS9Cf1HAxNTw78PKi3XYk04tc9c11jODa7r4e7z2YbMTKx83GxsqiSlVkVRsg9/XyfvXVP4e4iuK8qnG0PUIzklPKisWiL7znY+vL8Fu/kV2Gi8caJOyvSchX40pSklCdCTb/ABpU5T5VL12b/sWauF+I9YyoZHEWTy0x6SqjZCds4b7uuKqXhRi+0ttwMYNFtfAep2NdMmd+VXt/kndBKXz5W/mS3A8oPRJQi05V5uVGaX4rlJWL7mmWKWLjSxZ4fhxWM6HjeHFbRVXJycq+RQloPGOh5V8tGm7qLdkp1WUJzgukfHpyNoc0fJrfv3XZOosfGN1VWhZkJtc2TZjU1Lf60lbG1pfKLfyIXDpsv4ByoVrmlGWVbt6qnNdsvuTPm3hzirVasnK1bJrlmQq8PAxXZGNcJSnDmnbKmHIum/RJ799yycPadlaZpNGFmeC7oWZUp+E3OtxstlNLeSXk15AeDgjKqu0dY0WvFwsi+FkfxuS2yV0JNej3aX5pZLrqseq6+6ahVTCVlk5PZRhFbtspOZwxrenZs83h25xhPmao8SNdlMZPmdS8T8HKG/Vbvp7+6xHR+NtZnVTreT9H0+FkJX1xnjqdsYvm5VDFXL19XLp38th1OjRwPPxdX1y3bbxcaFnLt1XPfOW3y7HQip8NaBqWkajqd+RHGVF9Sqx/BtnOaUbZzSmnXFdmt3uy2CSAAEJAAAAAAAAAAAAAAAAAAAAAAAAAAAAAAAAAAAAAA05VVt+Nk01XzottqshXfXs5VTkmlNJ+nc3ADmGFrGt8N6hm059dlzulzZFWRbLntkuiuptknv8Afutu23s+jWONJ52LbhYuK8eOTHwrJ2zU7ZQl0cK4RW3Xs+r6N/FTnHH97cb+nf8AslZ4O/vxR8LP9hnqHnotHB2jZGnYl+Vl1uvLznW/CmvwlFEE3CE/ST3bkvel5FpAPM83oAAAAAAAAAAAAAAAAAAAAAAAAAAAAAAAAAAAAAAAB//Z;" parent="1" vertex="1">
                    <mxGeometry x="670" y="150" width="132.93" height="80" as="geometry"/>
                </mxCell>
                <mxCell id="XypIK83r2j00tN3dOgXR-12" style="edgeStyle=orthogonalEdgeStyle;rounded=0;orthogonalLoop=1;jettySize=auto;html=1;entryX=0.5;entryY=0;entryDx=0;entryDy=0;" parent="1" target="XypIK83r2j00tN3dOgXR-3" edge="1">
                    <mxGeometry relative="1" as="geometry">
                        <mxPoint x="895" y="360" as="targetPoint"/>
                        <mxPoint x="701.46" y="49.89999999999998" as="sourcePoint"/>
                    </mxGeometry>
                </mxCell>
                <mxCell id="2" value="" style="shape=image;verticalLabelPosition=bottom;labelBackgroundColor=default;verticalAlign=top;aspect=fixed;imageAspect=0;image=https://iaperfecta.com/wp-content/uploads/2024/09/Diseno-sin-titulo-1.png;clipPath=inset(38.67% 0.67% 38.67% 2%);" vertex="1" parent="1">
                    <mxGeometry x="616.08" y="20" width="257.65" height="60" as="geometry"/>
                </mxCell>
                <mxCell id="8" value="" style="edgeStyle=none;html=1;" edge="1" parent="1" source="3" target="6">
                    <mxGeometry relative="1" as="geometry"/>
                </mxCell>
                <mxCell id="3" value="" style="shape=image;verticalLabelPosition=bottom;labelBackgroundColor=default;verticalAlign=top;aspect=fixed;imageAspect=0;image=https://miro.medium.com/v2/resize:fit:440/1*Ktf8lE6xr46MElBLckD55w.png;clipPath=inset(0% 27.33% 0% 26%);" vertex="1" parent="1">
                    <mxGeometry x="608" y="359.42" width="82.95" height="80.58" as="geometry"/>
                </mxCell>
                <mxCell id="7" value="" style="edgeStyle=none;html=1;" edge="1" parent="1" source="4" target="3">
                    <mxGeometry relative="1" as="geometry"/>
                </mxCell>
                <mxCell id="4" value="" style="shape=image;verticalLabelPosition=bottom;labelBackgroundColor=default;verticalAlign=top;aspect=fixed;imageAspect=0;image=https://cdn.worldvectorlogo.com/logos/twitter-logo-2.svg;clipPath=inset(2% 0.67% 2% 0% round 19%);" vertex="1" parent="1">
                    <mxGeometry x="458.09000000000003" y="359.42" width="84.91" height="82.06067114093959" as="geometry"/>
                </mxCell>
                <mxCell id="9" style="edgeStyle=none;html=1;" edge="1" parent="1">
                    <mxGeometry relative="1" as="geometry">
                        <mxPoint x="880" y="49.99999999999994" as="targetPoint"/>
                        <mxPoint x="930" y="400" as="sourcePoint"/>
                        <Array as="points">
                            <mxPoint x="1000" y="400"/>
                            <mxPoint x="1000" y="50"/>
                        </Array>
                    </mxGeometry>
                </mxCell>
                <mxCell id="6" value="" style="shape=image;verticalLabelPosition=bottom;labelBackgroundColor=default;verticalAlign=top;aspect=fixed;imageAspect=0;image=https://brandlogos.net/wp-content/uploads/2025/03/langchain-logo_brandlogos.net_9zgaw.png;" vertex="1" parent="1">
                    <mxGeometry x="752.96" y="312.95000000000005" width="175" height="175" as="geometry"/>
                </mxCell>
            </root>
        </mxGraphModel>
    </diagram>
</mxfile>